<svg width="32" height="32" viewBox="0 0 32 32" fill="none" xmlns="http://www.w3.org/2000/svg">
  <defs>
    <linearGradient id="bgGrad" x1="0%" y1="0%" x2="100%" y2="100%">
      <stop offset="0%" style="stop-color:#6366f1"/>
      <stop offset="100%" style="stop-color:#a855f7"/>
    </linearGradient>
  </defs>
  
  <!-- Background -->
  <rect width="32" height="32" rx="8" fill="url(#bgGrad)"/>
  
  <!-- Simplified Brain/S Icon -->
  <path d="M16 6C12 6 9 9 9 13C9 15 10 17 12 18C10 19 9 21 9 23C9 26 12 28 16 28C20 28 23 26 23 23C23 21 22 19 20 18C22 17 23 15 23 13C23 9 20 6 16 6Z" 
        stroke="white" stroke-width="2.5" stroke-linecap="round" fill="none"/>
  
  <!-- Center dot -->
  <circle cx="16" cy="17" r="2" fill="white"/>
</svg>
