<svg width="200" height="50" viewBox="0 0 200 50" fill="none" xmlns="http://www.w3.org/2000/svg">
  <defs>
    <linearGradient id="logoGradient" x1="0%" y1="0%" x2="100%" y2="100%">
      <stop offset="0%" style="stop-color:#6366f1"/>
      <stop offset="100%" style="stop-color:#a855f7"/>
    </linearGradient>
  </defs>
  
  <!-- Icon -->
  <rect x="2" y="5" width="40" height="40" rx="10" fill="url(#logoGradient)"/>
  
  <!-- Brain Symbol -->
  <g transform="translate(10, 13)">
    <path d="M12 2C9 2 7 4 7 7C7 8.5 7.5 9.5 8.5 10.5C7.5 11 7 12 7 13.5C7 16 9 18 12 18C15 18 17 16 17 13.5C17 12 16.5 11 15.5 10.5C16.5 9.5 17 8.5 17 7C17 4 15 2 12 2Z" 
          stroke="white" stroke-width="2" stroke-linecap="round" fill="none"/>
    <circle cx="12" cy="10" r="1.5" fill="white"/>
  </g>
  
  <!-- Text: Smart Study -->
  <text x="52" y="32" font-family="system-ui, -apple-system, sans-serif" font-size="20" font-weight="700" fill="white">
    Smart Study
  </text>
</svg>
